<?xml version="1.0" standalone="no"?><!DOCTYPE svg PUBLIC "-//W3C//DTD SVG 1.1//EN" "http://www.w3.org/Graphics/SVG/1.1/DTD/svg11.dtd"><svg t="1709172161333" class="icon" viewBox="0 0 1024 1024" version="1.1" xmlns="http://www.w3.org/2000/svg" p-id="33255" data-spm-anchor-id="a313x.search_index.0.i18.72cd3a81PtcjuR" xmlns:xlink="http://www.w3.org/1999/xlink" width="200" height="200"><path d="M447.467 884.526h130.516V738.337H447.467z" fill="#FDCC9B" p-id="33256"></path><path d="M447.467 755.548s54.89 34.971 130.511 26.885v-44.095H447.467v17.21zM322.956 511.671c0 40.127-28.511 72.673-63.693 72.673-35.165 0-63.676-32.546-63.676-72.673s28.511-72.651 63.676-72.651c35.183 0 63.693 32.524 63.693 72.651zM829.88 511.671c0 40.127-28.528 72.673-63.693 72.673s-63.676-32.546-63.676-72.673 28.511-72.651 63.676-72.651 63.693 32.524 63.693 72.651z" fill="#FCBC85" p-id="33257"></path><path d="M765.926 372.896c0-107.011-78.312-185.323-253.201-185.323-174.895 0-253.184 78.312-253.184 185.323 0 107.034-18.276 388.94 253.184 388.94 271.478 0 253.201-281.906 253.201-388.94z" fill="#FDCC9B" p-id="33258" data-spm-anchor-id="a313x.search_index.0.i19.72cd3a81PtcjuR" class=""></path><path d="M416.809 494.282c0 16.584-12.271 30.026-27.401 30.026-15.135 0-27.429-13.442-27.429-30.026s12.293-30.026 27.429-30.026c15.129 0 27.401 13.443 27.401 30.026z" fill="#3B2519" p-id="33259"></path><path d="M385.656 481.018c0 4.529-3.685 8.192-8.192 8.192a8.188 8.188 0 0 1-8.198-8.192c0-4.512 3.663-8.198 8.198-8.198 4.507 0 8.192 3.685 8.192 8.198z" fill="#FFFFFF" p-id="33260"></path><path d="M345.551 419.878c12.959 6.482 33.772-22.028 81.409 2.775 8.691 4.529 13.875-38.656-37.186-38.656-44.223-0.001-52.054 31.979-44.223 35.881z" fill="#4C2D19" p-id="33261"></path><path d="M666.846 494.282c0 16.584-12.271 30.026-27.401 30.026-15.135 0-27.406-13.442-27.406-30.026s12.271-30.026 27.406-30.026c15.13 0 27.401 13.443 27.401 30.026z" fill="#3B2519" p-id="33262"></path><path d="M635.693 481.018a8.187 8.187 0 0 1-8.197 8.192 8.186 8.186 0 0 1-8.192-8.192c0-4.512 3.663-8.198 8.192-8.198 4.534 0 8.197 3.685 8.197 8.198z" fill="#FFFFFF" p-id="33263"></path><path d="M679.9 419.878c-12.965 6.482-33.778-22.028-81.409 2.775-8.675 4.529-13.853-38.656 37.202-38.656 44.207-0.001 52.032 31.979 44.207 35.881z" fill="#4C2D19" p-id="33264"></path><path d="M512.725 599.867c-27.079 0-43.385-20.23-43.385-10.451 0 9.796 7.826 28.4 43.385 28.4 35.576 0 43.402-18.604 43.402-28.4 0-9.779-16.323 10.451-43.402 10.451zM512.725 689.857c-9.369 0-15.002-6.977-15.002-3.596 0 3.38 2.708 9.824 15.002 9.824 12.31 0 15.024-6.444 15.024-9.824 0-3.381-5.661 3.596-15.024 3.596z" fill="#FCBC85" p-id="33265"></path><path d="M512.725 664.926c-42.93 0-68.793-17.494-68.793-13.048 0 4.423 12.421 21.851 68.793 21.851 56.389 0 68.788-17.427 68.788-21.851 0-4.424-25.863 13.048-68.788 13.048z" fill="#F7945E" p-id="33266"></path><path d="M512.725 797.068v164.466H195.587c0-66.579 167.047-164.466 317.138-164.466zM512.725 797.068v164.466H829.88c-0.022-66.579-167.063-164.466-317.155-164.466z" fill="#1296db" p-id="33267" data-spm-anchor-id="a313x.search_index.0.i10.72cd3a81PtcjuR" class=""></path><path d="M447.467 802.768s19.098 23.677 65.258 23.677c46.177 0 65.253-23.677 65.253-23.677s-67.706-24.648-130.511 0z" fill="#FDCC9B" p-id="33268"></path><path d="M420.71 961.534l-13.481-150.113s-28.683-3.946-63.132 21.074l-28.616 129.04H420.71zM512.725 826.445v135.089h-45.033l8.825-62.161-25.953-27.423zM604.735 961.534l13.503-150.113s28.661-3.946 63.11 21.074l28.622 129.04H604.735zM512.725 826.445v135.089h45.028l-8.802-62.161 25.93-27.423z" fill="#665853" p-id="33269"></path><path d="M577.978 786.639l-65.253 39.805 68.788 68.533 51.1-79.549s-33.406-32.885-54.635-28.789z" fill="#1296db" p-id="33270" data-spm-anchor-id="a313x.search_index.0.i16.72cd3a81PtcjuR" class=""></path><path d="M447.467 786.639l65.258 39.805-68.793 68.533-51.1-79.549s33.428-32.885 54.635-28.789z" fill="#1296db" p-id="33271" data-spm-anchor-id="a313x.search_index.0.i17.72cd3a81PtcjuR" class=""></path><path d="M792.678 186.901c-6.133-12.094-23.477-13.698-32.629-18.904-9.124-5.223-9.124-27.423-26.102-36.553-16.956-9.124-19.575 5.228-31.458 2.603-11.861-2.603-23.349-26.102-39.023-31.308-15.673-5.223-30.004 5.206-41.759 2.603-11.75-2.603-19.575-27.401-40.194-26.102-20.619 1.299-21.157 15.651-25.386 14.353-4.251-1.299-17.949-33.928-43.402-33.928-25.431 0-39.156 32.629-43.385 33.928-4.246 1.299-4.79-13.054-25.408-14.353-20.596-1.299-28.422 23.499-40.172 26.102-11.75 2.625-26.08-7.826-41.759-2.603-15.673 5.228-27.162 28.705-39.045 31.33-11.877 2.603-14.48-11.75-31.458-2.625-16.95 9.152-16.95 31.33-26.102 36.553-9.124 5.228-26.468 6.81-32.629 18.926-22.178 43.707 17.516 352.087 34.644 352.087 17.105 0 7.137-156.962 33.24-217.02 26.102-60.03 126.587-7.826 212.075-7.826 85.483 0 185.989-52.204 212.091 7.826 26.108 60.058 16.134 217.02 33.24 217.02 17.127 0.001 56.821-308.379 34.621-352.109z" fill="#4C2D19" p-id="33272"></path></svg>