<?xml version="1.0" standalone="no"?><!DOCTYPE svg PUBLIC "-//W3C//DTD SVG 1.1//EN" "http://www.w3.org/Graphics/SVG/1.1/DTD/svg11.dtd"><svg t="1706933214332" class="icon" viewBox="0 0 1024 1024" version="1.1" xmlns="http://www.w3.org/2000/svg" p-id="34673" xmlns:xlink="http://www.w3.org/1999/xlink" width="200" height="200"><path d="M32.682382 551.692929c9.955556 0 19.911111-3.361616 29.737374-9.955556 6.593939 0 16.549495 3.361616 13.187879-9.955556 6.593939-3.361616 13.187879-6.593939 23.143434-6.593939 0 3.361616-9.955556 3.361616-6.593939 6.593939 3.361616 3.361616 6.593939 0 9.955556 0 9.955556-3.361616 19.911111-3.361616 29.737374-9.955556 6.593939 0 13.187879-3.361616 19.911111-6.593939 3.361616 0 6.593939-3.361616 6.593939-6.593939l3.361616 0c16.549495-6.593939 33.09899-9.955556 49.648485-13.187879 0 3.361616 0 3.361616 3.361616 3.361616 6.593939 0 13.187879-3.361616 19.911111-6.593939 9.955556-3.361616 19.911111-3.361616 29.737374-9.955556 6.593939 0 13.187879-3.361616 19.911111-3.361616l3.361616-3.361616c19.911111-3.361616 39.692929-3.361616 56.242424-9.955556 115.846465-39.692929 235.054545-76.153535 350.90101-115.846465 76.153535-26.505051 152.307071-46.286869 225.09899-72.791919 9.955556-3.361616 16.549495-6.593939 19.911111 6.593939 0 6.593939 6.593939 3.361616 13.187879 3.361616 13.187879-13.187879 0-26.505051-3.361616-36.460606s-13.187879-3.361616-23.143434-3.361616c-23.143434 6.593939-49.648485 16.549495-72.791919 23.143434-9.955556 3.361616-19.911111 3.361616-26.505051-6.593939-13.187879-16.549495-26.505051-29.737374-43.054545-43.054545-33.09899-29.737374-72.791919-56.242424-112.484848-72.791919-36.460606-13.187879-69.559596-23.143434-109.252525-26.505051-62.836364-3.361616-86.109091-3.361616-122.440404 0-29.737374 6.593939-59.60404 9.955556-86.109091 33.09899 0 0-3.361616 0-6.593939 0-6.593939 0-13.187879 3.361616-19.911111 6.593939-36.460606 23.143434-66.19798 49.648485-92.70303 79.385859-29.737374 16.549495-46.286869 39.692929-62.836364 66.19798-6.593939 13.187879-9.955556 19.911111-26.505051 23.143434 0-6.593939 0-9.955556-6.593939-9.955556-6.593939 3.361616 3.361616 6.593939 0 9.955556-9.955556 16.549495-16.549495 36.460606-19.911111 53.010101 0 6.593939-6.593939 13.187879-6.593939 19.911111 9.955556 39.692929 6.593939 76.153535-9.955556 112.484848 3.361616 9.955556-3.361616 6.593939-6.593939 6.593939 3.361616-6.593939 0-6.593939-3.361616-6.593939-13.187879 0-23.143434 6.593939-33.09899 9.955556-3.361616 0-13.187879 3.361616-3.361616 9.955556l0 3.361616c-6.593939 6.593939-16.549495 3.361616-23.143434 6.593939C29.320766 548.460606 29.320766 551.692929 32.682382 551.692929L32.682382 551.692929 32.682382 551.692929zM419.914705 154.505051 419.914705 154.505051 419.914705 154.505051c0-6.593939 6.593939-3.361616 9.955556-6.593939 29.737374-6.593939 59.60404-6.593939 89.341414-6.593939 79.385859 0 148.945455 26.505051 211.781818 69.559596 19.911111 13.187879 36.460606 29.737374 53.010101 46.286869 6.593939 6.593939 19.911111 9.955556 19.911111 23.143434 0 3.361616 0 3.361616 0 6.593939-3.361616 3.361616-3.361616-3.361616-6.593939-3.361616-39.692929-46.286869-86.109091-82.747475-142.351515-105.890909-59.60404-23.143434-119.208081-36.460606-182.044444-26.505051-13.187879 3.361616-23.143434 6.593939-36.460606 3.361616C429.870261 157.866667 423.276322 154.505051 419.914705 154.505051L419.914705 154.505051 419.914705 154.505051 419.914705 154.505051 419.914705 154.505051c-3.361616 6.593939-9.955556 0-16.549495 3.361616C409.95915 151.272727 413.320766 151.272727 419.914705 154.505051L419.914705 154.505051 419.914705 154.505051zM363.672281 171.054545c-6.593939 9.955556-16.549495 9.955556-26.505051 9.955556C343.76117 177.648485 353.716726 174.416162 363.672281 171.054545L363.672281 171.054545 363.672281 171.054545zM330.573291 187.60404C261.013695 234.020202 204.771271 290.262626 171.672281 369.648485 175.033897 316.767677 264.375312 214.109091 330.573291 187.60404L330.573291 187.60404 330.573291 187.60404zM158.484402 478.90101c3.361616-53.010101 19.911111-102.658586 46.286869-145.583838 46.286869-79.385859 109.252525-132.39596 195.232323-162.133333 29.737374-9.955556 59.60404-16.549495 89.341414-16.549495 79.385859-6.593939 152.307071 13.187879 221.737374 56.242424 33.09899 19.911111 56.242424 46.286869 82.747475 76.153535-3.361616 0-6.593939 0-6.593939 3.361616-19.911111 9.955556-36.460606 13.187879-56.242424-9.955556-33.09899-36.460606-79.385859-59.60404-125.80202-76.153535 0 13.187879 0 9.955556 9.955556 16.549495 49.648485 16.549495 92.70303 43.054545 125.80202 82.747475-66.19798 23.143434-132.39596 43.054545-195.232323 66.19798-105.890909 33.09899-211.781818 69.559596-317.80202 102.658586-19.911111 6.593939-16.549495-3.361616-16.549495-13.187879 19.911111-95.935354 69.559596-172.088889 158.90101-218.505051 49.648485-26.505051 105.890909-36.460606 162.133333-36.460606l9.955556 0c3.361616 0 6.593939 0 6.593939-3.361616 0-6.593939-3.361616-6.593939-6.593939-6.593939-39.692929-3.361616-79.385859 0-115.846465 9.955556-109.252525 36.460606-182.044444 109.252525-218.505051 218.505051-6.593939 16.549495-6.593939 36.460606-9.955556 53.010101 0 6.593939-29.737374 19.911111-36.460606 16.549495C158.484402 488.856566 158.484402 485.494949 158.484402 478.90101L158.484402 478.90101 158.484402 478.90101zM151.890463 760.242424c6.593939-6.593939 19.911111-3.361616 26.505051-13.187879 0-6.593939 0-9.955556-6.593939-6.593939-13.187879 6.593939-29.737374 13.187879-46.286869 16.549495-9.955556 3.361616-6.593939 6.593939-3.361616 9.955556-3.361616 6.593939-3.361616 3.361616-6.593939 0 0-16.549495-9.955556 3.361616-13.187879-3.361616-6.593939 6.593939-9.955556 3.361616-13.187879-3.361616-19.911111-69.559596-43.054545-138.989899-66.19798-205.187879 0-3.361616 0-6.593939-3.361616-3.361616-3.361616 0-6.593939-3.361616-6.593939-3.361616-3.361616 0 0 3.361616 0 6.593939 6.593939 19.911111 6.593939 43.054545 13.187879 62.836364 9.955556 59.60404 36.460606 112.484848 53.010101 165.494949 0 3.361616 0 9.955556 6.593939 6.593939 3.361616 0 9.955556 0 9.955556-9.955556 0-6.593939 3.361616-6.593939 6.593939 0 16.549495 6.593939 26.505051-6.593939 36.460606-9.955556 6.593939 0 13.187879 0 16.549495-6.593939C155.122786 766.836364 151.890463 763.60404 151.890463 760.242424L151.890463 760.242424 151.890463 760.242424zM227.914705 220.70303c3.361616 0 6.593939 0 6.593939-3.361616 0-3.361616 0-3.361616-3.361616-3.361616-3.361616 0-6.593939 0-6.593939 3.361616C224.682382 220.70303 224.682382 224.064646 227.914705 220.70303L227.914705 220.70303 227.914705 220.70303zM853.56319 733.737374c6.593939-3.361616 9.955556-6.593939 9.955556-16.549495C856.795514 720.549495 853.56319 727.143434 853.56319 733.737374L853.56319 733.737374 853.56319 733.737374zM995.914705 412.70303c-13.187879-36.460606-26.505051-76.153535-36.460606-112.484848-3.361616-6.593939-6.593939-16.549495-13.187879-19.911111-9.955556 0-9.955556 3.361616-9.955556 9.955556 0 6.593939 3.361616 9.955556 3.361616 16.549495 16.549495 49.648485 33.09899 95.935354 49.648485 145.583838 0 3.361616 6.593939 13.187879 0 16.549495-6.593939 3.361616-13.187879 9.955556-19.911111 13.187879 0-3.361616 0-3.361616-3.361616-3.361616-3.361616 0-3.361616 3.361616-3.361616 3.361616s0 0-3.361616 0c-6.593939 0-13.187879 0-19.911111 3.361616-36.460606 13.187879-72.791919 26.505051-109.252525 36.460606-39.692929 13.187879-79.385859 26.505051-119.208081 39.692929-125.80202 39.692929-251.60404 82.747475-380.638384 125.80202-9.955556 3.361616-23.143434 3.361616-19.911111 16.549495s16.549495 3.361616 23.143434 0c102.658586-29.737374 201.955556-66.19798 304.484848-99.29697 53.010101-16.549495 102.658586-33.09899 152.307071-49.648485 9.955556-3.361616 16.549495-3.361616 13.187879 9.955556-13.187879 72.791919-46.286869 135.757576-105.890909 178.682828-102.658586 79.385859-215.143434 89.341414-334.351515 33.09899-3.361616-3.361616-9.955556-6.593939-16.549495-3.361616l0 0 0 0c0 6.593939 3.361616 13.187879 9.955556 16.549495 39.692929 19.911111 79.385859 33.09899 122.440404 36.460606 53.010101 3.361616 102.658586-3.361616 148.945455-23.143434 56.242424-26.505051 102.658586-62.836364 135.757576-112.484848 13.187879-23.143434 23.143434-43.054545 36.460606-66.19798 6.593939-19.911111 13.187879-39.692929 16.549495-59.60404 3.361616-19.911111 13.187879-26.505051 33.09899-26.505051 3.361616 0 6.593939-3.361616 6.593939-6.593939 0 49.648485-9.955556 99.29697-36.460606 142.351515 0-6.593939 0-9.955556-3.361616-13.187879 0-9.955556 6.593939-19.911111 0-26.505051 0-6.593939-6.593939-3.361616-9.955556-3.361616 0 3.361616-3.361616 9.955556 3.361616 9.955556l0 0c0 3.361616 0 9.955556-3.361616 9.955556-6.593939 9.955556 0 9.955556 6.593939 13.187879 3.361616 6.593939-9.955556 16.549495 6.593939 16.549495l0 0 0 0c-3.361616 3.361616-3.361616 16.549495-13.187879 6.593939-3.361616 6.593939-9.955556 16.549495-9.955556 26.505051l0 0 0 0c-6.593939 0-6.593939-6.593939-19.911111-9.955556 13.187879 13.187879-3.361616 23.143434 6.593939 33.09899-13.187879 9.955556-26.505051 23.143434-39.692929 29.737374-9.955556 3.361616-6.593939 9.955556-6.593939 13.187879 0 9.955556 0 6.593939-9.955556 9.955556-16.549495 3.361616-36.460606-6.593939-53.010101 9.955556-13.187879 13.187879-29.737374 13.187879-43.054545 16.549495-9.955556 3.361616-19.911111 3.361616-23.143434 13.187879-3.361616 6.593939-9.955556 13.187879-23.143434 9.955556-3.361616 0-6.593939 0-9.955556 0l-3.361616 0c-6.593939 0-9.955556 3.361616-9.955556 13.187879l0 0c0 6.593939-3.361616 9.955556-9.955556 9.955556-59.60404 9.955556-115.846465 3.361616-168.856566-16.549495-3.361616-3.361616-9.955556-6.593939-13.187879 3.361616 13.187879 6.593939 29.737374 9.955556 43.054545 16.549495-16.549495 0-33.09899-3.361616-49.648485-13.187879-3.361616 0-9.955556 3.361616-9.955556-3.361616l0-3.361616c3.361616-9.955556 3.361616-9.955556-6.593939-13.187879-33.09899-19.911111-69.559596-36.460606-92.70303-69.559596-6.593939-13.187879-13.187879-3.361616-16.549495 3.361616-13.187879-3.361616-16.549495-16.549495-23.143434-23.143434 9.955556-3.361616 9.955556 9.955556 19.911111 6.593939 3.361616-3.361616 0-6.593939 0-9.955556-3.361616 0-6.593939-3.361616-3.361616-6.593939 6.593939-9.955556 36.460606-9.955556 46.286869-3.361616l0 0c13.187879 23.143434 39.692929 36.460606 59.60404 49.648485 6.593939 6.593939 6.593939-3.361616 9.955556-6.593939l0 0 0 0 0 0 0 0c-13.187879-13.187879-29.737374-23.143434-43.054545-33.09899-6.593939-6.593939-9.955556-16.549495-19.911111-16.549495l0 0c0-6.593939 13.187879-13.187879 6.593939-19.911111-6.593939-9.955556-16.549495 0-23.143434 0-23.143434 6.593939-43.054545 13.187879-66.19798 19.911111-6.593939 3.361616-16.549495 3.361616-19.911111 13.187879l3.361616 3.361616 0 0-3.361616 3.361616c-3.361616 3.361616-3.361616 6.593939-3.361616 9.955556l0 0 0 0c0 3.361616-6.593939 3.361616-6.593939 9.955556 9.955556-3.361616 23.143434-6.593939 33.09899-13.187879-6.593939 16.549495 13.187879 19.911111 13.187879 33.09899-3.361616 6.593939 3.361616 13.187879 6.593939 16.549495s3.361616 9.955556 6.593939 9.955556c6.593939 6.593939 6.593939 0 6.593939-3.361616l0 0c6.593939 0 3.361616 9.955556 9.955556 9.955556-3.361616 13.187879 0 16.549495 13.187879 13.187879 6.593939-3.361616 0-6.593939 3.361616-13.187879 6.593939 6.593939 16.549495 6.593939 19.911111 16.549495 0 6.593939-9.955556 3.361616-13.187879 6.593939 9.955556 9.955556 13.187879 13.187879 19.911111 13.187879 13.187879 3.361616 29.737374 6.593939 46.286869 9.955556 36.460606 13.187879 76.153535 26.505051 115.846465 36.460606l0 6.593939L502.66218 905.955556l19.911111 0c0-3.361616 6.593939-3.361616 9.955556-3.361616 29.737374-3.361616 59.60404-6.593939 89.341414-16.549495 23.143434-6.593939 43.054545-16.549495 66.19798-23.143434 19.911111-3.361616 36.460606-13.187879 49.648485-26.505051 9.955556-9.955556 23.143434-23.143434 36.460606-26.505051 16.549495-6.593939 23.143434-26.505051 43.054545-33.09899 16.549495-6.593939 13.187879-26.505051 26.505051-39.692929 6.593939-6.593939 9.955556-23.143434 16.549495-23.143434 16.549495-3.361616 13.187879-16.549495 16.549495-26.505051 3.361616-13.187879 6.593939-26.505051 16.549495-36.460606 9.955556-13.187879 6.593939-26.505051 13.187879-43.054545 3.361616-13.187879 16.549495-26.505051 0-36.460606l0 0c0-16.549495 3.361616-33.09899 3.361616-49.648485 0-9.955556 6.593939-13.187879 13.187879-13.187879 29.737374-9.955556 59.60404-19.911111 89.341414-29.737374l0-13.187879C1005.740968 445.80202 999.147029 429.252525 995.914705 412.70303L995.914705 412.70303 995.914705 412.70303zM257.781372 786.747475 257.781372 786.747475C261.013695 786.747475 261.013695 786.747475 257.781372 786.747475 261.013695 789.979798 261.013695 789.979798 257.781372 786.747475 257.781372 789.979798 257.781372 786.747475 257.781372 786.747475L257.781372 786.747475 257.781372 786.747475zM330.573291 839.628283C330.573291 839.628283 333.934907 839.628283 330.573291 839.628283 333.934907 839.628283 333.934907 839.628283 330.573291 839.628283L330.573291 839.628283 330.573291 839.628283zM654.969251 819.846465c6.593939-3.361616 13.187879-3.361616 16.549495-6.593939C668.15713 823.078788 664.924806 819.846465 654.969251 819.846465L654.969251 819.846465 654.969251 819.846465zM754.266221 780.153535c6.593939-9.955556 13.187879-16.549495 26.505051-23.143434C767.454099 780.153535 767.454099 780.153535 754.266221 780.153535L754.266221 780.153535 754.266221 780.153535zM810.508645 723.781818c0-6.593939 3.361616-9.955556 9.955556-9.955556C817.102584 720.549495 813.870261 723.781818 810.508645 723.781818L810.508645 723.781818 810.508645 723.781818zM807.147029 677.494949c6.593939-3.361616 3.361616-9.955556 3.361616-16.549495-6.593939 6.593939-9.955556 9.955556-6.593939 13.187879C803.914705 677.494949 807.147029 677.494949 807.147029 677.494949L807.147029 677.494949 807.147029 677.494949zM724.399554 776.791919c3.361616 0 3.361616-3.361616 6.593939-6.593939-3.361616 0-3.361616-3.361616-3.361616-3.361616-3.361616 0-3.361616 3.361616-3.361616 6.593939C717.805615 776.791919 721.167231 780.153535 724.399554 776.791919L724.399554 776.791919 724.399554 776.791919zM532.528847 849.583838c3.361616 0 3.361616 0 3.361616-3.361616l-3.361616-3.361616c-3.361616 0-3.361616 0-6.593939 3.361616C525.805615 849.583838 529.167231 849.583838 532.528847 849.583838L532.528847 849.583838 532.528847 849.583838zM247.825817 733.737374c-3.361616 0-6.593939 3.361616-9.955556 6.593939C241.231877 740.331313 247.825817 740.331313 247.825817 733.737374L247.825817 733.737374 247.825817 733.737374 247.825817 733.737374zM237.870261 740.331313 237.870261 740.331313 237.870261 740.331313 237.870261 740.331313 237.870261 740.331313 237.870261 740.331313zM837.013695 571.60404C837.013695 571.60404 833.652079 571.60404 837.013695 571.60404c-9.955556 3.361616-6.593939 13.187879-13.187879 16.549495 0 0 0 3.361616 3.361616 6.593939C830.419756 588.153535 837.013695 581.559596 837.013695 571.60404L837.013695 571.60404 837.013695 571.60404zM416.682382 237.252525l9.955556 9.955556 0 0 16.549495-3.361616 0 0-6.593939 13.187879 0 0 6.593939 13.187879c0 0 0 3.361616 0 0l-13.187879-3.361616 0 0-9.955556 9.955556-3.361616 0-3.361616-13.187879 0 0-13.187879-6.593939c0 0 0 0 0-3.361616l13.187879-6.593939 0 0L416.682382 237.252525 416.682382 237.252525 416.682382 237.252525 416.682382 237.252525zM486.112685 234.020202l3.361616 9.955556 0 0 9.955556 3.361616 0 0-6.593939 6.593939 0 0 0 9.955556 0 0-9.955556-6.593939 0 0-9.955556 3.361616 0 0 3.361616-9.955556 0 0-6.593939-6.593939 0 0 9.955556 0 0 0L486.112685 234.020202 486.112685 234.020202 486.112685 234.020202 486.112685 234.020202zM383.583392 273.713131l0 9.955556 0 0 9.955556 6.593939 0 0-9.955556 3.361616 0 0 0 9.955556 0 0-6.593939-3.361616 0 0-9.955556 0 0 0 3.361616-9.955556 0 0-3.361616-9.955556 0 0 9.955556 3.361616 0 0L383.583392 273.713131 383.583392 273.713131 383.583392 273.713131 383.583392 273.713131zM618.508645 770.19798l-9.955556-9.955556 0 0-13.187879 3.361616 0 0 6.593939-13.187879 0 0-6.593939-13.187879c0 0 0-3.361616 0 0l13.187879 3.361616 0 0 9.955556-9.955556 3.361616 0 3.361616 13.187879 0 0 13.187879 6.593939c0 0 0 0 0 3.361616l-16.549495 0 0 0L618.508645 770.19798 618.508645 770.19798 618.508645 770.19798 618.508645 770.19798zM549.078342 773.430303l-3.361616-9.955556 0 0-9.955556-3.361616 0 0 6.593939-6.593939 0 0 0-9.955556 0 0 6.593939 6.593939 0 0 9.955556-3.361616 0 0-3.361616 9.955556 0 0 6.593939 6.593939 0 0-9.955556 0 0 0L549.078342 773.430303 549.078342 773.430303 549.078342 773.430303 549.078342 773.430303zM651.607635 730.505051l0-9.955556 0 0-9.955556-3.361616 0 0 9.955556-3.361616 0 0 0-9.955556 0 0 6.593939 6.593939 0 0 9.955556 0 0 0-3.361616 9.955556 0 0 3.361616 9.955556 0 0-9.955556-3.361616 0 0L651.607635 730.505051C654.969251 730.505051 651.607635 730.505051 651.607635 730.505051L651.607635 730.505051 651.607635 730.505051z" p-id="34674" fill="#1296db"></path><path d="M168.439958 528.549495 175.033897 541.737374 151.890463 548.460606 158.484402 565.010101 178.266221 558.286869 181.627837 568.242424 198.177332 565.010101 194.815716 551.692929 218.088443 545.09899 221.320766 558.286869 237.870261 555.054545 234.637938 541.737374 251.187433 535.143434 247.825817 518.593939 227.914705 525.187879 224.682382 512 208.132887 515.361616 211.365211 528.549495 191.583392 535.143434 184.989453 521.955556 168.439958 528.549495Z" p-id="34675" fill="#1296db"></path><path d="M277.56319 654.351515c-3.361616-13.187879-13.187879-43.054545-26.505051-92.70303l-53.010101 16.549495c0-3.361616 0-3.361616 0-6.593939l-16.549495 3.361616c0 19.911111-3.361616 33.09899-9.955556 46.286869l16.549495 9.955556 0-3.361616 13.187879 43.054545 49.648485-16.549495-16.549495-53.010101-39.692929 13.187879c0-6.593939 3.361616-9.955556 3.361616-16.549495l43.054545-13.187879c13.187879 39.692929 19.911111 62.836364 19.911111 69.559596 3.361616 9.955556 0 16.549495-6.593939 16.549495-6.593939 3.361616-13.187879 3.361616-19.911111 6.593939l9.955556 9.955556c9.955556-3.361616 13.187879-3.361616 16.549495-3.361616C274.330867 677.494949 280.924806 667.539394 277.56319 654.351515L277.56319 654.351515zM221.320766 617.890909l9.955556 26.505051-16.549495 6.593939L204.771271 624.484848 221.320766 617.890909 221.320766 617.890909z" p-id="34676" fill="#1296db"></path><path d="M323.979352 607.935354c3.361616-23.143434 0-49.648485-9.955556-79.385859l9.955556-3.361616-6.593939-16.549495-39.692929 13.187879c0-6.593939-3.361616-16.549495-3.361616-26.505051l-16.549495 3.361616c6.593939 33.09899 6.593939 59.60404 3.361616 82.747475l13.187879 9.955556c0-3.361616 3.361616-9.955556 3.361616-16.549495 9.955556 16.549495 19.911111 26.505051 29.737374 39.692929-3.361616 16.549495-9.955556 33.09899-19.911111 46.286869l13.187879 13.187879c9.955556-13.187879 16.549495-29.737374 19.911111-46.286869 13.187879 9.955556 26.505051 19.911111 39.692929 23.143434l6.593939-16.549495C350.484402 627.846465 337.167231 621.252525 323.979352 607.935354L323.979352 607.935354zM277.56319 548.460606c0-3.361616 0-6.593939 0-9.955556l23.143434-6.593939c6.593939 19.911111 9.955556 39.692929 9.955556 59.60404C297.474301 581.559596 287.518746 565.010101 277.56319 548.460606L277.56319 548.460606z" p-id="34677" fill="#1296db"></path><path d="M423.276322 442.440404 429.870261 455.757576 386.815716 468.945455 390.177332 482.262626 433.231877 468.945455 436.4642 475.539394 400.132887 488.856566 406.726827 502.044444 439.825817 492.088889 443.05814 498.812121 396.771271 515.361616 400.132887 528.549495 512.617736 492.088889 509.25612 478.90101 459.607635 495.450505 456.375312 485.494949 492.706625 472.307071 489.474301 458.989899 453.013695 472.307071 449.781372 462.351515 492.706625 449.163636 489.474301 435.846465 446.419756 449.163636 439.825817 439.208081 423.276322 442.440404Z" p-id="34678" fill="#1296db"></path><path d="M525.805615 574.836364 502.66218 505.406061l-86.109091 29.737374 26.505051 86.109091 16.549495-6.593939-6.593939-26.505051 53.010101-16.549495 3.361616 6.593939c0 3.361616 0 6.593939-3.361616 6.593939l-16.549495 3.361616 9.955556 13.187879 16.549495-3.361616C525.805615 594.747475 529.167231 588.153535 525.805615 574.836364L525.805615 574.836364zM436.4642 541.737374l53.010101-16.549495 3.361616 9.955556-53.010101 16.549495L436.4642 541.737374 436.4642 541.737374zM446.419756 574.836364l-3.361616-9.955556 53.010101-16.549495 3.361616 9.955556L446.419756 574.836364 446.419756 574.836364z" p-id="34679" fill="#1296db"></path><path d="M353.716726 468.945455l-9.955556 16.549495c16.549495 6.593939 29.737374 9.955556 39.692929 16.549495l6.593939-16.549495C380.221776 482.262626 367.033897 475.539394 353.716726 468.945455L353.716726 468.945455 353.716726 468.945455z" p-id="34680" fill="#1296db"></path><path d="M340.528847 531.911111l6.593939 16.549495 23.143434-6.593939 23.143434 66.19798c0 3.361616 0 6.593939 0 9.955556l13.187879 13.187879c9.955556-13.187879 16.549495-26.505051 23.143434-39.692929l-9.955556-16.549495c-3.361616 6.593939-6.593939 13.187879-9.955556 19.911111l-23.143434-76.153535L340.528847 531.911111 340.528847 531.911111z" p-id="34681" fill="#1296db"></path><path d="M628.4642 498.812121l-9.955556 3.361616L595.365211 429.252525l9.955556-3.361616-6.593939-16.549495-9.955556 3.361616-6.593939-19.911111-16.549495 6.593939 6.593939 19.911111-29.737374 9.955556-6.593939-19.911111-16.549495 6.593939 6.593939 19.911111-9.955556 3.361616 6.593939 16.549495 9.955556-3.361616 23.143434 72.791919-13.187879 0 6.593939 16.549495 86.109091-29.737374L628.4642 498.812121 628.4642 498.812121zM549.078342 458.989899l-3.361616-13.187879 29.737374-9.955556 3.361616 13.187879L549.078342 458.989899 549.078342 458.989899zM555.672281 472.307071l29.737374-9.955556 3.361616 13.187879-29.737374 9.955556L555.672281 472.307071 555.672281 472.307071zM568.86016 515.361616l-3.361616-13.187879 29.737374-9.955556 3.361616 13.187879L568.86016 515.361616 568.86016 515.361616z" p-id="34682" fill="#1296db"></path><path d="M568.86016 538.505051c-3.361616 13.187879-6.593939 26.505051-13.187879 36.460606l16.549495 6.593939c6.593939-13.187879 9.955556-26.505051 13.187879-39.692929L568.86016 538.505051 568.86016 538.505051z" p-id="34683" fill="#1296db"></path><path d="M711.211675 515.361616l-46.286869-142.351515-62.836364 19.911111 29.737374 86.109091c6.593939 23.143434 9.955556 46.286869 3.361616 62.836364-6.593939-6.593939-16.549495-13.187879-26.505051-19.911111l-9.955556 13.187879c9.955556 6.593939 19.911111 16.549495 26.505051 23.143434l6.593939-9.955556 16.549495 6.593939c6.593939-19.911111 6.593939-43.054545 3.361616-66.19798l29.737374-9.955556 9.955556 33.09899c0 3.361616 0 6.593939-3.361616 9.955556-6.593939 3.361616-13.187879 3.361616-19.911111 6.593939l9.955556 16.549495 19.911111-6.593939C711.211675 535.143434 717.805615 525.187879 711.211675 515.361616L711.211675 515.361616zM635.05814 432.614141l-9.955556-26.505051 29.737374-9.955556 9.955556 26.505051L635.05814 432.614141 635.05814 432.614141zM648.375312 475.539394l-9.955556-26.505051 29.737374-9.955556 9.955556 26.505051L648.375312 475.539394 648.375312 475.539394z" p-id="34684" fill="#1296db"></path><path d="M721.167231 346.505051c-3.361616 19.911111-9.955556 39.692929-23.143434 56.242424l9.955556 16.549495c16.549495-23.143434 26.505051-46.286869 29.737374-69.559596L721.167231 346.505051 721.167231 346.505051z" p-id="34685" fill="#1296db"></path><path d="M740.949049 386.19798c-3.361616 23.143434-9.955556 46.286869-23.143434 66.19798l9.955556 13.187879c6.593939-6.593939 9.955556-16.549495 13.187879-23.143434l23.143434 72.791919 16.549495-6.593939-29.737374-92.70303c3.361616-9.955556 6.593939-19.911111 6.593939-33.09899L740.949049 386.19798 740.949049 386.19798z" p-id="34686" fill="#1296db"></path><path d="M787.365211 323.361616 793.95915 343.143434 757.498544 356.460606 760.86016 373.010101 800.553089 359.692929 807.147029 376.242424 760.86016 392.791919 764.221776 409.341414 873.345008 373.010101 870.112685 356.460606 823.696524 373.010101 817.102584 353.09899 856.795514 339.911111 850.201574 326.593939 810.508645 336.549495 803.914705 320 787.365211 323.361616Z" p-id="34687" fill="#1296db"></path><path d="M770.815716 425.890909l6.593939 16.549495 69.559596-23.143434 13.187879 39.692929c3.361616 6.593939 0 9.955556-6.593939 13.187879-6.593939 3.361616-16.549495 3.361616-23.143434 6.593939l9.955556 16.549495 26.505051-9.955556c13.187879-3.361616 16.549495-13.187879 13.187879-26.505051l-13.187879-43.054545 19.911111-6.593939-6.593939-16.549495-19.911111 6.593939-3.361616-13.187879-16.549495 6.593939 3.361616 13.187879L770.815716 425.890909 770.815716 425.890909z" p-id="34688" fill="#1296db"></path><path d="M803.914705 439.208081l-9.955556 13.187879c13.187879 6.593939 23.143434 13.187879 33.09899 19.911111l9.955556-13.187879C827.05814 452.39596 817.102584 445.80202 803.914705 439.208081L803.914705 439.208081 803.914705 439.208081z" p-id="34689" fill="#1296db"></path></svg>